<svg width="25" height="22" viewBox="0 0 25 22" fill="none" xmlns="http://www.w3.org/2000/svg">
<path d="M0 1.76282C0 0.78776 0.797991 0 1.78571 0H23.2143C24.202 0 25 0.78776 25 1.76282C25 2.73788 24.202 3.52564 23.2143 3.52564H1.78571C0.797991 3.52564 0 2.73788 0 1.76282ZM0 10.5769C0 9.60186 0.797991 8.8141 1.78571 8.8141H23.2143C24.202 8.8141 25 9.60186 25 10.5769C25 11.552 24.202 12.3397 23.2143 12.3397H1.78571C0.797991 12.3397 0 11.552 0 10.5769ZM25 19.391C25 20.3661 24.202 21.1538 23.2143 21.1538H1.78571C0.797991 21.1538 0 20.3661 0 19.391C0 18.416 0.797991 17.6282 1.78571 17.6282H23.2143C24.202 17.6282 25 18.416 25 19.391Z" fill="#3F4045"/>
</svg>
