<svg width="200" height="199" viewBox="0 0 200 199" fill="none" xmlns="http://www.w3.org/2000/svg">
<path d="M139.894 79.225L164.472 54.375C165.867 52.975 167.523 52.275 169.44 52.275C171.358 52.275 173.014 52.975 174.408 54.375C175.803 55.775 176.5 57.4375 176.5 59.3625C176.5 61.2875 175.803 62.95 174.408 64.35L144.775 94.1C143.381 95.5 141.754 96.2 139.894 96.2C138.035 96.2 136.408 95.5 135.014 94.1L120.197 79.225C118.803 77.825 118.105 76.1625 118.105 74.2375C118.105 72.3125 118.803 70.65 120.197 69.25C121.592 67.85 123.219 67.15 125.078 67.15C126.937 67.15 128.564 67.85 129.959 69.25L139.894 79.225ZM80.2798 99C72.6101 99 66.0443 96.2583 60.5826 90.775C55.1208 85.2917 52.3899 78.7 52.3899 71C52.3899 63.3 55.1208 56.7083 60.5826 51.225C66.0443 45.7417 72.6101 43 80.2798 43C87.9495 43 94.5153 45.7417 99.9771 51.225C105.439 56.7083 108.17 63.3 108.17 71C108.17 78.7 105.439 85.2917 99.9771 90.775C94.5153 96.2583 87.9495 99 80.2798 99ZM24.5 141V135.4C24.5 131.433 25.5168 127.787 27.5505 124.463C29.5841 121.137 32.2859 118.6 35.656 116.85C42.8609 113.233 50.182 110.521 57.6193 108.713C65.0566 106.904 72.6101 106 80.2798 106C87.9495 106 95.5031 106.904 102.94 108.713C110.378 110.521 117.699 113.233 124.904 116.85C128.274 118.6 130.976 121.137 133.009 124.463C135.043 127.787 136.06 131.433 136.06 135.4V141C136.06 144.85 134.694 148.146 131.963 150.887C129.232 153.629 125.95 155 122.115 155H38.445C34.6101 155 31.3272 153.629 28.5963 150.887C25.8654 148.146 24.5 144.85 24.5 141Z" fill="#3F4045"/>
</svg>
