<svg width="200" height="199" viewBox="0 0 200 199" fill="none" xmlns="http://www.w3.org/2000/svg">
<path d="M46.3458 149.766C41.9882 149.766 38.2578 148.215 35.1547 145.112C32.0516 142.009 30.5 138.278 30.5 133.921V127.582C30.5 123.093 31.6554 118.966 33.9663 115.203C36.2771 111.439 39.3472 108.567 43.1766 106.587C51.3636 102.493 59.6826 99.423 68.1337 97.3762C76.5848 95.3295 85.1679 94.3061 93.8831 94.3061C95.3356 94.3061 96.7551 94.3391 98.1416 94.4051C99.5281 94.4712 100.948 94.5702 102.4 94.7022C104.513 94.9663 106.263 95.8577 107.649 97.3762C109.036 98.8948 109.729 100.71 109.729 102.823V141.843C109.729 144.088 108.97 145.97 107.451 147.489C105.932 149.007 104.051 149.766 101.806 149.766H46.3458ZM93.8831 86.3832C85.1679 86.3832 77.7072 83.2801 71.5009 77.0738C65.2947 70.8675 62.1915 63.4068 62.1915 54.6916C62.1915 45.9764 65.2947 38.5157 71.5009 32.3094C77.7072 26.1031 85.1679 23 93.8831 23C102.598 23 110.059 26.1031 116.265 32.3094C122.471 38.5157 125.575 45.9764 125.575 54.6916C125.575 63.4068 122.471 70.8675 116.265 77.0738C110.059 83.2801 102.598 86.3832 93.8831 86.3832ZM141.42 141.843H133.497C131.253 141.843 129.371 141.084 127.852 139.566C126.334 138.047 125.575 136.165 125.575 133.921V102.229C125.575 99.9842 126.334 98.1025 127.852 96.5839C129.371 95.0654 131.253 94.3061 133.497 94.3061H163.406C165.651 94.3061 167.368 95.2304 168.556 97.0791C169.745 98.9278 169.811 100.842 168.754 102.823L157.266 125.998H162.812C165.057 125.998 166.741 126.988 167.863 128.969C168.985 130.95 169.018 132.93 167.962 134.911L145.184 174.922C144.656 175.846 143.896 176.176 142.906 175.912C141.916 175.648 141.42 174.988 141.42 173.931V141.843Z" fill="#3F4045"/>
</svg>
