<svg width="200" height="199" viewBox="0 0 200 199" fill="none" xmlns="http://www.w3.org/2000/svg">
<path d="M123.5 160.6V156.75L69.8333 129.8H46.8333C42.6167 129.8 39.0069 128.292 36.0042 125.276C33.0014 122.26 31.5 118.635 31.5 114.4V99C31.5 94.765 33.0014 91.1396 36.0042 88.1237C39.0069 85.1079 42.6167 83.6 46.8333 83.6H64.4667L85.1667 59.73V37.4C85.1667 33.165 86.6681 29.5396 89.6708 26.5237C92.6736 23.5079 96.2833 22 100.5 22H115.833C120.05 22 123.66 23.5079 126.662 26.5237C129.665 29.5396 131.167 33.165 131.167 37.4V52.8C131.167 57.035 129.665 60.6604 126.662 63.6763C123.66 66.6921 120.05 68.2 115.833 68.2H98.2L77.5 92.07V116.325L124.458 139.81C125.481 136.858 127.301 134.452 129.921 132.591C132.54 130.73 135.511 129.8 138.833 129.8H154.167C158.383 129.8 161.993 131.308 164.996 134.324C167.999 137.34 169.5 140.965 169.5 145.2V160.6C169.5 164.835 167.999 168.46 164.996 171.476C161.993 174.492 158.383 176 154.167 176H138.833C134.617 176 131.007 174.492 128.004 171.476C125.001 168.46 123.5 164.835 123.5 160.6Z" fill="#3F4045"/>
</svg>
