<svg width="200" height="199" viewBox="0 0 200 199" fill="none" xmlns="http://www.w3.org/2000/svg">
<path d="M92.1918 101.034L68.7671 166.355C68.6225 166.794 68.261 167.305 67.6826 167.89L60.742 174.685C59.4406 176 57.9585 176.329 56.2957 175.671C54.6328 175.014 53.6568 173.808 53.3676 172.054L52.5 162.629L52.7169 160.656L77.0091 92.7049C79.1781 94.7507 81.5278 96.4678 84.0582 97.856C86.5887 99.2443 89.2999 100.304 92.1918 101.034ZM100 93.1433C92.7702 93.1433 86.6248 90.586 81.5639 85.4713C76.503 80.3567 73.9726 74.1461 73.9726 66.8395C73.9726 61.1404 75.5993 56.0623 78.8527 51.6053C82.1062 47.1483 86.2633 44.043 91.3242 42.2894V31.7679C91.3242 29.2837 92.1556 27.2013 93.8185 25.5208C95.4814 23.8403 97.5419 23 100 23C102.458 23 104.519 23.8403 106.182 25.5208C107.844 27.2013 108.676 29.2837 108.676 31.7679V42.2894C113.737 44.043 117.894 47.1483 121.147 51.6053C124.401 56.0623 126.027 61.1404 126.027 66.8395C126.027 74.1461 123.497 80.3567 118.436 85.4713C113.375 90.586 107.23 93.1433 100 93.1433ZM100 75.6074C102.458 75.6074 104.519 74.7672 106.182 73.0867C107.844 71.4062 108.676 69.3238 108.676 66.8395C108.676 64.3553 107.844 62.2729 106.182 60.5924C104.519 58.9119 102.458 58.0716 100 58.0716C97.5419 58.0716 95.4814 58.9119 93.8185 60.5924C92.1556 62.2729 91.3242 64.3553 91.3242 66.8395C91.3242 69.3238 92.1556 71.4062 93.8185 73.0867C95.4814 74.7672 97.5419 75.6074 100 75.6074ZM107.808 101.034C110.7 100.304 113.411 99.2443 115.942 97.856C118.472 96.4678 120.822 94.7507 122.991 92.7049L147.283 160.656C147.428 161.095 147.5 161.752 147.5 162.629L146.632 172.054C146.343 173.808 145.367 175.014 143.704 175.671C142.041 176.329 140.559 176 139.258 174.685L132.317 167.89L131.233 166.355L107.808 101.034Z" fill="#3F4045"/>
</svg>
