<svg width="200" height="199" viewBox="0 0 200 199" fill="none" xmlns="http://www.w3.org/2000/svg">
<path d="M36.5 123C34.2333 123 32.3333 122.233 30.8 120.7C29.2667 119.167 28.5 117.267 28.5 115C28.5 112.733 29.2667 110.833 30.8 109.3C32.3333 107.767 34.2333 107 36.5 107H84.5C86.7667 107 88.6667 107.767 90.2 109.3C91.7333 110.833 92.5 112.733 92.5 115C92.5 117.267 91.7333 119.167 90.2 120.7C88.6667 122.233 86.7667 123 84.5 123H36.5ZM36.5 155C34.2333 155 32.3333 154.233 30.8 152.7C29.2667 151.167 28.5 149.267 28.5 147C28.5 144.733 29.2667 142.833 30.8 141.3C32.3333 139.767 34.2333 139 36.5 139H84.5C86.7667 139 88.6667 139.767 90.2 141.3C91.7333 142.833 92.5 144.733 92.5 147C92.5 149.267 91.7333 151.167 90.2 152.7C88.6667 154.233 86.7667 155 84.5 155H36.5ZM36.5 91C34.2333 91 32.3333 90.2333 30.8 88.7C29.2667 87.1667 28.5 85.2667 28.5 83C28.5 80.7333 29.2667 78.8333 30.8 77.3C32.3333 75.7667 34.2333 75 36.5 75H84.5C86.7667 75 88.6667 75.7667 90.2 77.3C91.7333 78.8333 92.5 80.7333 92.5 83C92.5 85.2667 91.7333 87.1667 90.2 88.7C88.6667 90.2333 86.7667 91 84.5 91H36.5ZM36.5 59C34.2333 59 32.3333 58.2333 30.8 56.7C29.2667 55.1667 28.5 53.2667 28.5 51C28.5 48.7333 29.2667 46.8333 30.8 45.3C32.3333 43.7667 34.2333 43 36.5 43H84.5C86.7667 43 88.6667 43.7667 90.2 45.3C91.7333 46.8333 92.5 48.7333 92.5 51C92.5 53.2667 91.7333 55.1667 90.2 56.7C88.6667 58.2333 86.7667 59 84.5 59H36.5ZM124.5 155C120.1 155 116.333 153.433 113.2 150.3C110.067 147.167 108.5 143.4 108.5 139V59C108.5 54.6 110.067 50.8333 113.2 47.7C116.333 44.5667 120.1 43 124.5 43H156.5C160.9 43 164.667 44.5667 167.8 47.7C170.933 50.8333 172.5 54.6 172.5 59V139C172.5 143.4 170.933 147.167 167.8 150.3C164.667 153.433 160.9 155 156.5 155H124.5Z" fill="#3F4045"/>
</svg>
