<svg width="200" height="199" viewBox="0 0 200 199" fill="none" xmlns="http://www.w3.org/2000/svg">
<path d="M73.9292 90.8883L91.4875 73.1258L80.0542 61.4883L76.7875 64.755C75.2903 66.2522 73.4188 67.0349 71.1729 67.1029C68.9271 67.171 66.9875 66.3883 65.3542 64.755C63.7208 63.1217 62.9042 61.1821 62.9042 58.9362C62.9042 56.6904 63.7208 54.7508 65.3542 53.1175L68.4167 50.055L59.2292 40.8675L41.4667 58.63L73.9292 90.8883ZM140.896 158.059L158.658 140.297L149.471 131.109L146.204 134.172C144.571 135.805 142.665 136.622 140.488 136.622C138.31 136.622 136.404 135.805 134.771 134.172C133.137 132.538 132.321 130.633 132.321 128.455C132.321 126.277 133.137 124.372 134.771 122.738L137.833 119.472L126.196 108.038L108.637 125.597L140.896 158.059ZM134.567 53.9342L146 65.3675L157.433 53.9342L145.796 42.2967L134.567 53.9342ZM34.7292 172.963C32.4153 172.963 30.4757 172.181 28.9104 170.615C27.3451 169.05 26.5625 167.111 26.5625 164.797V141.726C26.5625 140.637 26.7667 139.582 27.175 138.561C27.5833 137.54 28.1958 136.622 29.0125 135.805L62.2917 102.526L26.9708 67.205C24.6569 64.8911 23.5 62.0328 23.5 58.63C23.5 55.2272 24.6569 52.3689 26.9708 50.055L50.6542 26.3717C52.9681 24.0578 55.8264 22.9349 59.2292 23.0029C62.6319 23.071 65.4903 24.2619 67.8042 26.5758L103.329 61.8967L134.158 30.8633C135.792 29.23 137.629 28.005 139.671 27.1883C141.713 26.3717 143.822 25.9633 146 25.9633C148.178 25.9633 150.287 26.3717 152.329 27.1883C154.371 28.005 156.208 29.23 157.842 30.8633L168.663 41.8883C170.296 43.5217 171.521 45.3592 172.337 47.4008C173.154 49.4425 173.562 51.5522 173.562 53.73C173.562 55.9078 173.154 57.9835 172.337 59.9571C171.521 61.9307 170.296 63.7342 168.663 65.3675L137.833 96.4008L173.154 131.722C175.468 134.036 176.625 136.894 176.625 140.297C176.625 143.699 175.468 146.558 173.154 148.872L149.471 172.555C147.157 174.869 144.299 176.026 140.896 176.026C137.493 176.026 134.635 174.869 132.321 172.555L97 137.234L63.7208 170.513C62.9042 171.33 61.9854 171.943 60.9646 172.351C59.9437 172.759 58.8889 172.963 57.8 172.963H34.7292Z" fill="#3F4045"/>
</svg>
